<svg xmlns="http://www.w3.org/2000/svg"><defs><symbol viewBox="0 0 60 60" id="aim"><path d="M59 29h-2.025C56.458 14.907 45.093 3.542 31 3.025V1a1 1 0 1 0-2 0v2.025C14.907 3.542 3.542 14.907 3.025 29H1a1 1 0 1 0 0 2h2.025C3.542 45.093 14.907 56.458 29 56.975V59a1 1 0 1 0 2 0v-2.025C45.093 56.458 56.458 45.093 56.975 31H59a1 1 0 1 0 0-2zM31 54.975V53a1 1 0 1 0-2 0v1.975C16.01 54.46 5.54 43.99 5.025 31H7a1 1 0 1 0 0-2H5.025C5.54 16.01 16.01 5.54 29 5.025V7a1 1 0 1 0 2 0V5.025C43.99 5.54 54.46 16.01 54.975 29H53a1 1 0 1 0 0 2h1.975C54.46 43.99 43.99 54.46 31 54.975z"/><path d="M42 29h-5.08A7.005 7.005 0 0 0 31 23.08V18a1 1 0 1 0-2 0v5.08A7.006 7.006 0 0 0 23.08 29H18a1 1 0 1 0 0 2h5.08A7.005 7.005 0 0 0 29 36.92V42a1 1 0 1 0 2 0v-5.08A7.006 7.006 0 0 0 36.92 31H42a1 1 0 1 0 0-2zm-12 6c-2.757 0-5-2.243-5-5s2.243-5 5-5 5 2.243 5 5-2.243 5-5 5z"/></symbol><symbol viewBox="0 0 451.846 451.847" id="arrow"><path d="M345.441 248.292L151.154 442.573c-12.359 12.365-32.397 12.365-44.75 0-12.354-12.354-12.354-32.391 0-44.744L278.318 225.92 106.409 54.017c-12.354-12.359-12.354-32.394 0-44.748 12.354-12.359 32.391-12.359 44.75 0l194.287 194.284c6.177 6.18 9.262 14.271 9.262 22.366 0 8.099-3.091 16.196-9.267 22.373z"/></symbol><symbol viewBox="0 0 512.001 512.001" id="bacteria"><path d="M410.144 254.514a7.502 7.502 0 0 0 2.728-14.488c-8.306-3.245-16.991-7.847-18.643-9.873a7.5 7.5 0 0 0-10.344-2.106 7.498 7.498 0 0 0-2.166 10.383c4.402 6.724 19.44 13.129 25.701 15.57a7.492 7.492 0 0 0 2.724.514zm-39.527 66.46c14.238 0 25.821-11.583 25.821-25.821s-11.583-25.821-25.821-25.821c-14.238 0-25.821 11.583-25.821 25.821 0 14.238 11.583 25.821 25.821 25.821zm0-36.643c5.967 0 10.821 4.855 10.821 10.821 0 5.966-4.854 10.821-10.821 10.821s-10.821-4.854-10.821-10.821 4.854-10.821 10.821-10.821zm-29.22-137.104a7.502 7.502 0 0 0 2.882-14.428c-5.327-2.214-13.137-13.471-13.737-16.902a7.493 7.493 0 0 0-8.148-6.732 7.5 7.5 0 0 0-6.785 8.152c.788 8.612 12.481 24.997 22.912 29.334a7.479 7.479 0 0 0 2.876.576z"/><path d="M284.116 422.299l18.619 8.18c9.929 4.362 20.358 6.513 30.707 6.513 15.584 0 30.989-4.875 44.239-14.417 22.05-15.88 33.733-41.515 31.253-68.574l-1.061-11.565c-.776-8.468 1.793-16.729 7.234-23.264l35.909-43.124c10.959-13.161 13.869-30.577 7.786-46.587-6.083-16.009-19.824-27.097-36.756-29.659l-2.985-.453c-9.493-1.437-17.745-7.006-22.639-15.28a7.498 7.498 0 0 0-10.272-2.638 7.498 7.498 0 0 0-2.638 10.272c7.197 12.17 19.336 20.362 33.303 22.477l2.986.452c11.507 1.742 20.846 9.277 24.979 20.157 4.134 10.881 2.156 22.717-5.292 31.661l-35.909 43.123c-8.006 9.615-11.786 21.771-10.645 34.232l1.061 11.565c1.99 21.716-7.386 42.289-25.082 55.033-17.696 12.743-40.181 15.113-60.147 6.344l-18.619-8.18c-19.489-8.563-41.019-12.302-62.252-10.811l-46.315 3.252c-24.393 1.717-47.354-8.098-62.977-26.915-15.625-18.817-21.049-43.185-14.881-66.853l11.056-42.424a46.779 46.779 0 0 0-13.321-45.995l-9.477-8.866c-8.846-8.275-12.172-20.177-8.896-31.839 3.275-11.662 12.313-20.092 24.174-22.551l60.462-12.531c13.903-2.883 25.607-11.774 32.111-24.393L213.65 91.83c4.874-9.458 13.725-15.649 24.28-16.987 10.557-1.334 20.672 2.451 27.751 10.394a46.713 46.713 0 0 0 56.887 10.208l10.092-5.353c10.242-5.434 22.199-4.963 31.983 1.26 9.784 6.223 15.28 16.852 14.703 28.432l-1.681 33.698a7.498 7.498 0 0 0 7.116 7.864 7.482 7.482 0 0 0 7.864-7.116l1.681-33.699c.851-17.04-7.237-32.68-21.634-41.836-14.398-9.156-31.989-9.849-47.063-1.854l-10.092 5.353a31.743 31.743 0 0 1-38.66-6.937 46.806 46.806 0 0 0-40.834-15.294 46.808 46.808 0 0 0-35.729 24.995l-13.814 26.81c-4.42 8.577-12.374 14.619-21.823 16.578l-60.462 12.531c-17.192 3.564-30.822 16.278-35.57 33.183-4.748 16.903.268 34.855 13.09 46.849l9.477 8.866a31.79 31.79 0 0 1 9.053 31.258l-11.056 42.424c-7.401 28.4-.893 57.639 17.855 80.218 18.748 22.58 46.3 34.358 75.569 32.296l46.315-3.252c18.811-1.322 37.895 1.992 55.168 9.58z"/><path d="M323.077 198.884a7.499 7.499 0 0 0-7.5 7.5v10.745c0 4.143 3.357 7.5 7.5 7.5s7.5-3.357 7.5-7.5v-10.745a7.498 7.498 0 0 0-7.5-7.5zm-25.821 176.871c0 14.238 11.583 25.821 25.821 25.821s25.822-11.583 25.822-25.821c0-14.238-11.584-25.821-25.822-25.821s-25.821 11.583-25.821 25.821zm25.821-10.821c5.968 0 10.822 4.855 10.822 10.821 0 5.966-4.855 10.821-10.822 10.821s-10.821-4.854-10.821-10.821 4.854-10.821 10.821-10.821z"/><path d="M484.798 401.772c-7.618-3.031-11.099-8.205-16.366-16.039-5.289-7.864-12.365-18.346-24.885-25.943-.04-2.956-.195-5.93-.468-8.915l-.966-10.552 35.253-42.336c18.984-22.8 24.027-52.97 13.49-80.705-10.538-27.733-34.342-46.942-63.675-51.384l-.778-.117.485-9.721c16.94-5.436 46.501-15.805 62.521-51.173a22.366 22.366 0 0 0 .562-17.218 22.365 22.365 0 0 0-11.78-12.572c-11.303-5.113-24.666-.085-29.786 11.218-4.897 10.813-11.774 16.899-20.423 21.2-2.177-16.885-9.563-32.542-21.527-45.118-6.329-6.652-13.715-12.111-21.747-16.255 1.516-.894 3.08-1.597 4.691-2.082 11.884-3.578 18.641-16.158 15.063-28.042C400.884 4.141 388.307-2.616 376.42.955c-15.873 4.78-29.108 14.977-39.339 30.309a98.72 98.72 0 0 0-4.331 7.164 81.99 81.99 0 0 0-23.181 8.123l-8.401 4.457c-15.304-16.362-36.755-25.707-59.164-25.707-30.537 0-58.187 16.841-72.157 43.949l-.953 1.849c-4.45-3.939-9.681-7.978-15.814-12.201-16.043-11.049-34.811-20.737-45.643-23.563-12.013-3.126-24.327 4.097-27.457 16.099-3.133 12.007 4.089 24.325 16.101 27.46 3.1.808 14.938 6.174 28.255 14.919a159.643 159.643 0 0 1 8.663 6.082l-35.741 7.408c-29.781 6.173-53.393 28.198-61.619 57.48-7.359 26.196-1.171 53.841 16.117 74.258-11.762 5.518-23.147 14.595-33.428 26.744-8.014 9.475-6.827 23.704 2.646 31.722a22.528 22.528 0 0 0 14.529 5.323 22.478 22.478 0 0 0 17.191-7.969 77.191 77.191 0 0 1 4.627-5.006l-1.291 4.952c-9.783 37.537-1.798 76.66 21.907 107.337a128.187 128.187 0 0 0 8.99 10.419c-11.794 6.251-24.433 16.367-30.292 34.313-3.851 11.798 2.615 24.529 14.411 28.381a22.486 22.486 0 0 0 6.988 1.115 22.458 22.458 0 0 0 21.394-15.526c2.071-6.348 9.671-9.853 25.922-15.31 2.294-.771 5.009-1.682 7.753-2.678a123.896 123.896 0 0 0 29.515 6.9 7.504 7.504 0 0 0 8.263-6.651 7.502 7.502 0 0 0-6.651-8.263 108.563 108.563 0 0 1-27.875-6.804 7.481 7.481 0 0 0-.925-.362 107.414 107.414 0 0 1-30.192-18.397 7.454 7.454 0 0 0-.458-.398 111.794 111.794 0 0 1-14.973-15.909c-20.845-26.973-27.865-61.373-19.262-94.381l11.056-42.424a12.527 12.527 0 0 0-3.566-12.312l-9.475-8.86c-18.105-16.939-25.188-42.288-18.482-66.154 6.705-23.866 25.949-41.818 50.223-46.85l60.462-12.532a12.465 12.465 0 0 0 8.595-6.529l13.819-26.808c11.388-22.096 33.928-35.821 58.824-35.821 18.784 0 36.745 8.063 49.277 22.123a12.558 12.558 0 0 0 9.369 4.194c2.059 0 4.03-.493 5.855-1.463l10.092-5.353a66.828 66.828 0 0 1 21.948-7.127c.029-.003.057-.008.085-.012a64.524 64.524 0 0 1 8.917-.63c7.147 0 14.209 1.206 20.918 3.461l.16.055c10.137 3.436 19.452 9.291 26.964 17.186 12.522 13.162 18.917 30.478 18.007 48.756l-2.284 45.775a12.491 12.491 0 0 0 10.64 13.011l2.986.452c23.908 3.62 43.31 19.276 51.898 41.881 8.588 22.605 4.478 47.194-10.996 65.778l-35.912 43.126a12.615 12.615 0 0 0-2.845 9.154l1.06 11.573c2.477 27.01-6.159 52.842-24.314 72.738-18.15 19.891-43.834 31.298-70.467 31.298-3.341 0-6.666-.178-9.969-.53l-.012-.001c-9.71-1.034-19.226-3.581-28.399-7.612l-18.621-8.183c-12.443-5.465-25.642-8.236-39.227-8.236-2.261 0-4.559.081-6.831.24l-32.157 2.258a7.5 7.5 0 0 0-6.956 8.007 7.493 7.493 0 0 0 8.007 6.956l32.156-2.258c13.493-.944 26.694 1.373 38.974 6.767l8.605 3.781c6.354 21.403 20.403 41.214 36.501 51.167a22.467 22.467 0 0 0 11.819 3.364c7.865 0 15.027-3.99 19.158-10.673a22.36 22.36 0 0 0 2.763-17.004c-1.284-5.441-4.484-10.094-9.035-13.264 28.383-1.779 55.328-14.658 74.771-35.965 6.632-7.269 12.165-15.221 16.547-23.681 6.94 10.313 16.509 24.152 36.706 32.188a22.404 22.404 0 0 0 8.314 1.597c9.277 0 17.488-5.57 20.918-14.19 4.587-11.531-1.061-24.646-12.593-29.235zm-56.296-278.078c12.42-4.974 25.365-13.085 33.566-31.19 1.707-3.771 6.165-5.447 9.935-3.742a7.459 7.459 0 0 1 3.93 4.193 7.451 7.451 0 0 1-.188 5.742c-11.948 26.38-32.186 35.834-48.056 41.299l.813-16.302zM98.814 423.45a122.6 122.6 0 0 0 14.854 10.234c-12.672 4.512-24.468 10.155-28.5 22.508a7.49 7.49 0 0 1-9.466 4.807c-3.935-1.284-6.092-5.531-4.808-9.467 5.011-15.349 16.947-23.159 27.92-28.082zM66.715 253.808l-3.405 13.066c-9.89 5-17.925 13.403-22.069 18.302a7.508 7.508 0 0 1-5.74 2.657 7.422 7.422 0 0 1-4.841-1.774c-3.16-2.675-3.556-7.422-.883-10.582 10.437-12.334 21.92-20.874 33.438-24.941l3.5 3.272zm89.848-158.797l-4.927 1.021c-3.797-3.678-9.783-8.659-19.071-14.758-13.731-9.017-27.1-15.435-32.703-16.895-4.006-1.046-6.415-5.154-5.371-9.159 1.045-4.004 5.164-6.409 9.159-5.37 9.03 2.355 26.621 11.557 40.917 21.401 6.945 4.783 12.695 9.366 17.191 13.68l-5.195 10.08zM368.604 39.87a80.613 80.613 0 0 0-17.333-2.738c7.968-10.984 17.87-18.319 29.468-21.812 3.964-1.189 8.164 1.059 9.357 5.022 1.193 3.964-1.061 8.16-5.023 9.354-6.065 1.826-11.586 5.242-16.469 10.174zm-34.956 453.57a7.473 7.473 0 0 1-6.399 3.56 7.486 7.486 0 0 1-3.933-1.123c-9.911-6.128-19.159-17.491-25.32-30.488a109.709 109.709 0 0 0 20.177 4.824c3.169 4.444 7.601 9.531 13.039 12.893a7.454 7.454 0 0 1 3.358 4.66 7.464 7.464 0 0 1-.922 5.674zm149.805-67.979a7.475 7.475 0 0 1-6.98 4.735 7.494 7.494 0 0 1-2.771-.535c-16.247-6.464-23.647-17.469-30.177-27.178-1.804-2.683-3.509-5.148-5.255-7.411a108.097 108.097 0 0 0 4.112-17.617c5.849 5.134 9.896 11.139 13.602 16.649 5.831 8.67 11.338 16.859 23.268 21.605 3.847 1.531 5.731 5.906 4.201 9.752z"/><path d="M156.693 369.578c3.43 1.355 6.547 1.912 9.394 1.912 7.949 0 13.785-4.34 18.372-7.752 4.41-3.279 7.32-5.3 11.117-5.3l.188.001a7.5 7.5 0 0 0 .074-15l-.268-.001c-8.952 0-15.107 4.578-20.063 8.264-5.733 4.267-8.259 5.917-13.3 3.927a7.5 7.5 0 0 0-5.514 13.949zm46.57-163.194c0-4.143-3.357-7.5-7.5-7.5a7.499 7.499 0 0 0-7.5 7.5v10.745c0 4.143 3.357 7.5 7.5 7.5s7.5-3.357 7.5-7.5v-10.745zm-49.935-19.964c4.117.114 7.587-3.156 7.697-7.297a7.498 7.498 0 0 0-7.297-7.697c-8.863-.256-14.74 2.614-19.955 5.131-5.307 2.56-9.889 4.77-18.359 4.058-4.121-.343-7.756 2.717-8.103 6.845a7.5 7.5 0 0 0 6.845 8.103c1.52.128 2.965.187 4.343.187 10.01 0 16.472-3.116 21.79-5.681 4.556-2.2 7.844-3.782 13.039-3.649zm118.556-58.035c0-12.754-10.376-23.13-23.13-23.13s-23.13 10.376-23.13 23.13c0 12.755 10.376 23.131 23.13 23.131s23.13-10.376 23.13-23.131zm-31.26 0c0-4.482 3.647-8.13 8.13-8.13 4.482 0 8.13 3.647 8.13 8.13 0 4.483-3.648 8.131-8.13 8.131-4.483 0-8.13-3.648-8.13-8.131zm18.796 127.049c15.265 0 27.683-13.496 27.683-30.084s-12.418-30.084-27.683-30.084c-15.264 0-27.682 13.496-27.682 30.084s12.418 30.084 27.682 30.084zm0-45.168c6.993 0 12.683 6.767 12.683 15.084s-5.689 15.084-12.683 15.084c-6.993 0-12.682-6.767-12.682-15.084 0-8.318 5.689-15.084 12.682-15.084zM145.501 342.707c12.754 0 23.13-10.376 23.13-23.13 0-12.755-10.376-23.131-23.13-23.131s-23.13 10.376-23.13 23.131c0 12.754 10.376 23.13 23.13 23.13zm0-31.261c4.482 0 8.13 3.647 8.13 8.131 0 4.482-3.647 8.13-8.13 8.13-4.482 0-8.13-3.647-8.13-8.13s3.647-8.131 8.13-8.131zm115.136 16.409a7.497 7.497 0 0 0 10.26-2.692c.899-1.54 1.688-3.009 2.452-4.429 4.173-7.768 5.721-10.67 15.289-10.196 4.144.218 7.658-2.98 7.864-7.116a7.498 7.498 0 0 0-7.116-7.864c-19.007-.972-24.697 9.599-29.251 18.078-.701 1.303-1.425 2.651-2.189 3.959a7.5 7.5 0 0 0 2.691 10.26z"/></symbol><symbol viewBox="0 0 21.9 21.9" id="cancel"><path d="M14.1 11.3c-.2-.2-.2-.5 0-.7l7.5-7.5c.2-.2.3-.5.3-.7s-.1-.5-.3-.7L20.2.3c-.2-.2-.5-.3-.7-.3-.3 0-.5.1-.7.3l-7.5 7.5c-.2.2-.5.2-.7 0L3.1.3C2.9.1 2.6 0 2.4 0s-.5.1-.7.3L.3 1.7c-.2.2-.3.5-.3.7s.1.5.3.7l7.5 7.5c.2.2.2.5 0 .7L.3 18.8c-.2.2-.3.5-.3.7s.1.5.3.7l1.4 1.4c.2.2.5.3.7.3s.5-.1.7-.3l7.5-7.5c.2-.2.5-.2.7 0l7.5 7.5c.2.2.5.3.7.3s.5-.1.7-.3l1.4-1.4c.2-.2.3-.5.3-.7s-.1-.5-.3-.7l-7.5-7.5z"/></symbol><symbol viewBox="0 0 480 480" id="ecology"><path d="M207.808 400a118.792 118.792 0 0 0-58.704-96.488l-55.264-61.4A29.88 29.88 0 0 0 64 232.944V128c0-17.673-14.327-32-32-32S0 110.327 0 128v151.416A72.228 72.228 0 0 0 9.064 314.4L80 442.072V472a8 8 0 0 0 8 8h112a8 8 0 0 0 8-8v-72h-.192zM192 464H96v-24a8.001 8.001 0 0 0-1.008-3.888L23.048 306.616a56.215 56.215 0 0 1-7.048-27.2V128c0-8.837 7.163-16 16-16s16 7.163 16 16v114.824c-10.01 11.633-9.78 28.902.536 40.264L114.08 355.2l11.84-10.768-65.544-72.104c-5.224-5.746-5.013-14.583.48-20.072 5.674-5.679 14.878-5.683 20.557-.008.185.185.364.374.539.568l56.104 62.336a11.3 11.3 0 0 0 2.4 1.84A102.503 102.503 0 0 1 192 405.8V464zM448 96c-17.673 0-32 14.327-32 32v104.944a30.99 30.99 0 0 0-7.936-.944 30.265 30.265 0 0 0-21.904 10.104l-55.248 61.384A118.537 118.537 0 0 0 272.192 400H272v72a8 8 0 0 0 8 8h112a8 8 0 0 0 8-8v-29.944l70.056-126.976A72.055 72.055 0 0 0 480 278.576V128c0-17.673-14.327-32-32-32zm16 182.576a56.27 56.27 0 0 1-7.84 28.584l-71.2 128.976A7.994 7.994 0 0 0 384 440v24h-96v-58.2a102.678 102.678 0 0 1 51.952-89 7.995 7.995 0 0 0 1.992-1.6l56.104-62.4c5.388-5.965 14.591-6.432 20.556-1.044 5.965 5.388 6.432 14.591 1.044 20.556l-65.568 72.104 11.84 10.784 65.544-72.096c10.326-11.365 10.555-28.645.536-40.28V128c0-8.837 7.163-16 16-16s16 7.163 16 16v150.576z"/><path d="M336 200h-16a87.92 87.92 0 0 0-72 37.6V184h8c48.577-.057 87.943-39.423 88-88a8 8 0 0 0-8-8h-16a87.92 87.92 0 0 0-72 37.6V72h8c35.33-.04 63.96-28.67 64-64a8 8 0 0 0-8-8h-16a63.999 63.999 0 0 0-56 33.088A63.999 63.999 0 0 0 184 0h-16a8 8 0 0 0-8 8c.04 35.33 28.67 63.96 64 64h8v53.6A87.92 87.92 0 0 0 160 88h-16a8 8 0 0 0-8 8c.057 48.577 39.423 87.943 88 88h8v53.6a87.92 87.92 0 0 0-72-37.6h-16a8 8 0 0 0-8 8c.057 48.577 39.423 87.943 88 88h8v64h16v-64h8c48.577-.057 87.943-39.423 88-88a8 8 0 0 0-8-8zm-16-96h7.56c-4.12 36.421-34.907 63.956-71.56 64h-7.56c4.12-36.421 34.907-63.956 71.56-64zm-24-88h7.336C299.401 39.08 279.413 55.971 256 56h-7.336c3.935-23.08 23.923-39.971 47.336-40zm-72 40c-23.413-.029-43.401-16.92-47.336-40H184c23.413.029 43.401 16.92 47.336 40H224zm0 112c-36.653-.044-67.44-27.579-71.56-64H160c36.653.044 67.44 27.579 71.56 64H224zm0 112c-36.653-.044-67.44-27.579-71.56-64H160c36.653.044 67.44 27.579 71.56 64H224zm32 0h-7.56c4.12-36.421 34.907-63.956 71.56-64h7.56c-4.12 36.421-34.907 63.956-71.56 64z"/></symbol><symbol viewBox="0 0 512.001 512.001" id="fabrics"><path d="M338.48 358.084H66.065a7.5 7.5 0 0 0 0 15h272.414a7.5 7.5 0 0 0 .001-15zm-44.622-133.54c22.87 0 41.475-18.411 41.475-41.041s-18.605-41.041-41.475-41.041-41.475 18.411-41.475 41.041 18.605 41.041 41.475 41.041zm0-67.082c14.599 0 26.475 11.682 26.475 26.041s-11.876 26.041-26.475 26.041-26.475-11.682-26.475-26.041c0-14.357 11.876-26.041 26.475-26.041z"/><path d="M512.001 336.758c0-14.662-12.074-26.591-26.914-26.591h-.038a26.15 26.15 0 0 0 2.684-11.562v-9.792c0-7.477-3.148-14.238-8.198-19.07 5.05-4.836 8.198-11.601 8.198-19.082v-9.734c0-4.153-.97-8.086-2.696-11.591h.079c14.824 0 26.884-11.916 26.884-26.562v-9.792c0-7.477-3.148-14.238-8.198-19.07 5.05-4.837 8.198-11.601 8.198-19.083v-9.734c0-12.881-9.321-23.65-21.647-26.075.386-1.672.607-3.392.607-5.15 0-6.127-2.412-11.882-6.791-16.205C479.817 93.367 474.036 91 467.892 91H71.603c-6.144 0-11.924 2.367-16.278 6.665-4.378 4.323-6.79 10.078-6.79 16.205 0 1.727.212 3.418.585 5.062C21.48 122.271 0 145.531 0 173.66v.522c0 26.187 18.619 48.154 43.491 53.757-11.767 10.119-19.224 24.989-19.224 41.552v.523c0 16.563 7.457 31.433 19.224 41.552C18.619 317.169 0 339.136 0 365.323v.522C0 396.258 25.104 421 55.961 421h429.155c14.824 0 26.884-11.916 26.885-26.564v-9.792c0-7.477-3.148-14.238-8.198-19.07 5.05-4.836 8.198-11.601 8.198-19.082v-9.734zM497 202.774c0 6.375-5.331 11.562-11.884 11.562h-86.298l33.341-32.916h52.957c6.553 0 11.884 5.187 11.884 11.562v9.792zm-63.685 74.479h27.533c6.553 0 11.884 5.187 11.884 11.562v9.792c0 6.375-5.331 11.562-11.884 11.562H301.747l33.341-32.916h68.781a7.5 7.5 0 0 0 0-15h-53.587l33.341-32.916h77.195c6.57 0 11.914 5.2 11.914 11.591v9.734c0 6.391-5.345 11.591-11.914 11.591h-27.503a7.5 7.5 0 0 0 0 15zm51.771-143.749c6.569 0 11.914 5.2 11.915 11.591v9.734c0 6.391-5.345 11.591-11.914 11.591h-37.733l33.341-32.916h4.391zM355.364 106h51.714c.411 1.835.618 3.716.618 5.629 0 14.36-11.876 26.042-26.475 26.042s-26.475-11.683-26.475-26.042c0-1.913.207-3.793.618-5.629zm-174.726 0h51.714c.411 1.835.618 3.716.618 5.629 0 14.36-11.876 26.042-26.475 26.042s-26.475-11.683-26.475-26.042c0-1.913.207-3.793.618-5.629zm-114.774 2.337a8.226 8.226 0 0 1 5.739-2.338h93.81a41.115 41.115 0 0 0-.396 5.629c0 22.631 18.605 41.042 41.475 41.042s41.475-18.412 41.475-41.042c0-1.898-.139-3.775-.396-5.629h92.57a41.115 41.115 0 0 0-.396 5.629c0 22.631 18.605 41.042 41.475 41.042s41.475-18.412 41.475-41.042c0-1.898-.139-3.775-.396-5.629h45.593c2.142 0 4.234.853 5.739 2.339a7.721 7.721 0 0 1 2.329 5.53 7.721 7.721 0 0 1-2.329 5.53L271.342 319.106c-.865.853-2.325.854-3.19 0l-33.791-33.36c8.55-7.683 13.608-18.647 13.608-30.369 0-22.63-18.606-41.041-41.475-41.041a41.657 41.657 0 0 0-30.754 13.537l-16.597-16.386c7.095-7.524 11.17-17.487 11.17-27.984 0-22.63-18.606-41.041-41.475-41.041a41.706 41.706 0 0 0-28.35 11.119l-34.624-34.182a7.721 7.721 0 0 1-2.329-5.53c0-2.084.827-4.048 2.329-5.532zm167.105 147.041c0 7.709-3.464 14.92-9.297 19.816l-36.264-35.801-.997-.984c4.975-5.695 12.273-9.072 20.083-9.072 14.599 0 26.475 11.682 26.475 26.041zm-77.657-71.874c0 6.512-2.483 12.714-6.836 17.454l-37.312-36.835a26.716 26.716 0 0 1 17.673-6.66c14.599.001 26.475 11.683 26.475 26.041zM15 174.181v-.522c0-22.141 18.375-40.155 40.961-40.155H58.8l33.341 32.916H56.358a7.5 7.5 0 0 0 0 15h50.978l33.341 32.916H55.961C33.375 214.336 15 196.323 15 174.181zm24.268 95.833v-.523c0-22.141 18.375-40.154 40.961-40.154h75.642l23.173 22.877 10.168 10.038H85.804a7.5 7.5 0 0 0 0 15h118.601l13.083 12.917.003.002 20.256 19.997H80.229c-22.586 0-40.961-18.013-40.961-40.154zM497 346.493c0 6.391-5.345 11.591-11.914 11.591H369.3a7.5 7.5 0 0 0 0 15h115.815c6.553 0 11.884 5.187 11.884 11.562v9.792c0 6.375-5.331 11.562-11.884 11.562H55.961C33.375 406 15 387.987 15 365.845v-.522c0-22.142 18.375-40.155 40.961-40.155h196.981l4.673 4.614c3.345 3.303 7.738 4.954 12.133 4.954 4.393-.001 8.788-1.652 12.133-4.954l4.673-4.614h198.532c6.569 0 11.914 5.2 11.914 11.591v9.734z"/></symbol><symbol viewBox="0 0 420.8 420.8" id="heart"><path d="M413.6 204H378c14.8-33.6 13.2-60.8 7.6-79.2-9.6-32.8-42-68.4-90-68.4-12.8 0-25.6 2.4-38.8 7.2C234 72 218.8 81.2 212 86c-6.8-4.8-21.6-14-44.8-22.4-13.2-4.8-26.4-7.2-38.8-7.2-48 0-80.4 35.6-90 68.4-5.6 19.6-7.6 49.2 11.2 86.4H6.4c-3.6 0-6.4 2.8-6.4 6.4 0 3.6 2.8 6.4 6.4 6.4h50.8c2 3.6 4.4 7.2 7.2 10.8 41.6 60 132 125.2 148.4 129.2v.4s.4 0 .8-.4h1.2v-.4c14-6.8 100.8-62.8 146.4-129.2 4.4-6 8-12 11.2-18h42c3.6 0 6.4-2.8 6.4-6.4 0-3.6-3.6-6-7.2-6zm-64 23.6c-42.4 62-120.4 112-137.2 122.8-17.2-10.8-94.8-61.2-137.6-122.8l-2.4-3.6h58.8c2.4 0 4.8-1.2 6-3.6l26.8-52.8 42 107.6c.8 2.4 3.6 4 6 4h.4c2.8 0 5.2-2 6-4.8l36.8-126 19.6 63.6c.8 2.4 2.8 4 5.2 4.4 2.4.4 4.8-.8 6.4-2.8l15.6-22.8 13.2 22.4c1.2 2 3.2 3.2 5.6 3.2h36c-2.4 4-4.8 7.6-7.2 11.2zM364 204h-39.2l-16.4-28c-1.2-2-3.2-3.2-5.6-3.2-2.4 0-4.4.8-5.6 2.8l-13.6 20-22-71.6c-.8-2.8-3.6-4.4-6.4-4.8-2.8 0-5.6 2-6.4 4.8l-37.2 128.4-40.4-103.2c-.8-2.4-3.2-4-5.6-4-2.8 0-4.8 1.2-6 3.6l-31.6 62H64.4c-16-29.2-20.4-57.2-13.2-82.4 8.4-28.4 36-58.8 77.6-58.8 11.2 0 22.8 2.4 34.4 6.4 29.2 10.8 44.8 23.2 45.2 23.2 2.4 2 5.6 2 8 0 0 0 15.6-12.4 45.2-23.2 11.6-4.4 23.2-6.4 34.4-6.4 41.2 0 69.2 30.4 77.6 58.8 6.8 23.2 3.2 48.8-9.6 75.6z"/></symbol><symbol viewBox="0 0 124 124" id="menu"><path d="M112 6H12C5.4 6 0 11.4 0 18s5.4 12 12 12h100c6.6 0 12-5.4 12-12s-5.4-12-12-12zm0 44H12C5.4 50 0 55.4 0 62s5.4 12 12 12h100c6.6 0 12-5.4 12-12s-5.4-12-12-12zm0 44H12c-6.6 0-12 5.4-12 12s5.4 12 12 12h100c6.6 0 12-5.4 12-12s-5.4-12-12-12z"/></symbol><symbol viewBox="0 0 473.806 473.806" id="phone"><path d="M374.456 293.506c-9.7-10.1-21.4-15.5-33.8-15.5-12.3 0-24.1 5.3-34.2 15.4l-31.6 31.5c-2.6-1.4-5.2-2.7-7.7-4-3.6-1.8-7-3.5-9.9-5.3-29.6-18.8-56.5-43.3-82.3-75-12.5-15.8-20.9-29.1-27-42.6 8.2-7.5 15.8-15.3 23.2-22.8 2.8-2.8 5.6-5.7 8.4-8.5 21-21 21-48.2 0-69.2l-27.3-27.3c-3.1-3.1-6.3-6.3-9.3-9.5-6-6.2-12.3-12.6-18.8-18.6-9.7-9.6-21.3-14.7-33.5-14.7s-24 5.1-34 14.7l-.2.2-34 34.3c-12.8 12.8-20.1 28.4-21.7 46.5-2.4 29.2 6.2 56.4 12.8 74.2 16.2 43.7 40.4 84.2 76.5 127.6 43.8 52.3 96.5 93.6 156.7 122.7 23 10.9 53.7 23.8 88 26 2.1.1 4.3.2 6.3.2 23.1 0 42.5-8.3 57.7-24.8.1-.2.3-.3.4-.5 5.2-6.3 11.2-12 17.5-18.1 4.3-4.1 8.7-8.4 13-12.9 9.9-10.3 15.1-22.3 15.1-34.6 0-12.4-5.3-24.3-15.4-34.3l-54.9-55.1zm35.8 105.3c-.1 0-.1.1 0 0-3.9 4.2-7.9 8-12.2 12.2-6.5 6.2-13.1 12.7-19.3 20-10.1 10.8-22 15.9-37.6 15.9-1.5 0-3.1 0-4.6-.1-29.7-1.9-57.3-13.5-78-23.4-56.6-27.4-106.3-66.3-147.6-115.6-34.1-41.1-56.9-79.1-72-119.9-9.3-24.9-12.7-44.3-11.2-62.6 1-11.7 5.5-21.4 13.8-29.7l34.1-34.1c4.9-4.6 10.1-7.1 15.2-7.1 6.3 0 11.4 3.8 14.6 7l.3.3c6.1 5.7 11.9 11.6 18 17.9 3.1 3.2 6.3 6.4 9.5 9.7l27.3 27.3c10.6 10.6 10.6 20.4 0 31-2.9 2.9-5.7 5.8-8.6 8.6-8.4 8.6-16.4 16.6-25.1 24.4-.2.2-.4.3-.5.5-8.6 8.6-7 17-5.2 22.7l.3.9c7.1 17.2 17.1 33.4 32.3 52.7l.1.1c27.6 34 56.7 60.5 88.8 80.8 4.1 2.6 8.3 4.7 12.3 6.7 3.6 1.8 7 3.5 9.9 5.3.4.2.8.5 1.2.7 3.4 1.7 6.6 2.5 9.9 2.5 8.3 0 13.5-5.2 15.2-6.9l34.2-34.2c3.4-3.4 8.8-7.5 15.1-7.5 6.2 0 11.3 3.9 14.4 7.3l.2.2 55.1 55.1c10.3 10.2 10.3 20.7.1 31.3zm-154.2-286.1c26.2 4.4 50 16.8 69 35.8s31.3 42.8 35.8 69c1.1 6.6 6.8 11.2 13.3 11.2.8 0 1.5-.1 2.3-.2 7.4-1.2 12.3-8.2 11.1-15.6-5.4-31.7-20.4-60.6-43.3-83.5s-51.8-37.9-83.5-43.3c-7.4-1.2-14.3 3.7-15.6 11s3.5 14.4 10.9 15.6zm217.2 96.3c-8.9-52.2-33.5-99.7-71.3-137.5s-85.3-62.4-137.5-71.3c-7.3-1.3-14.2 3.7-15.5 11-1.2 7.4 3.7 14.3 11.1 15.6 46.6 7.9 89.1 30 122.9 63.7 33.8 33.8 55.8 76.3 63.7 122.9 1.1 6.6 6.8 11.2 13.3 11.2.8 0 1.5-.1 2.3-.2 7.3-1.1 12.3-8.1 11-15.4z"/></symbol><symbol viewBox="0 0 510 510" id="play"><path d="M255 0C114.75 0 0 114.75 0 255s114.75 255 255 255 255-114.75 255-255S395.25 0 255 0zm-51 369.75v-229.5L357 255 204 369.75z"/></symbol><symbol viewBox="0 0 490.4 490.4" id="scroll"><path d="M490.4 245.2C490.4 110 380.4 0 245.2 0S0 110 0 245.2s110 245.2 245.2 245.2 245.2-110 245.2-245.2zm-465.9 0c0-121.7 99-220.7 220.7-220.7s220.7 99 220.7 220.7-99 220.7-220.7 220.7-220.7-99-220.7-220.7z"/><path d="M253.9 360.4l68.9-68.9c4.8-4.8 4.8-12.5 0-17.3s-12.5-4.8-17.3 0l-48 48V138.7c0-6.8-5.5-12.3-12.3-12.3s-12.3 5.5-12.3 12.3v183.4l-48-48c-4.8-4.8-12.5-4.8-17.3 0s-4.8 12.5 0 17.3l68.9 68.9c2.4 2.4 5.5 3.6 8.7 3.6s6.3-1.1 8.7-3.5z"/></symbol><symbol viewBox="0 0 60 60" id="stopwatch"><path d="M32.53 30.553L19.586 21.19a1 1 0 1 0-1.397 1.397l9.365 12.946A3.555 3.555 0 0 0 30.437 37c.942 0 1.848-.372 2.519-1.044a3.56 3.56 0 0 0-.426-5.403zm-.988 3.989a1.572 1.572 0 0 1-1.228.453 1.56 1.56 0 0 1-1.141-.637l-5.713-7.897 7.895 5.711a1.565 1.565 0 0 1 .187 2.37z"/><path d="M56.081 26.022l-.001-.01-.005-.011a26.84 26.84 0 0 0-2.67-6.437c-.01-.021-.01-.043-.022-.064-.012-.02-.031-.031-.044-.05a27.105 27.105 0 0 0-3.566-4.809l2.147-2.147 1.415 1.414 4.242-4.242-4.242-4.243-4.243 4.243 1.414 1.414-2.147 2.147a27.154 27.154 0 0 0-4.809-3.566c-.019-.013-.03-.032-.05-.044-.02-.012-.044-.011-.064-.022A26.808 26.808 0 0 0 37 6.925l-.011-.005h-.01A26.82 26.82 0 0 0 33 6.171V5h1.5C35.879 5 37 3.879 37 2.5S35.879 0 34.5 0h-9C24.121 0 23 1.121 23 2.5S24.121 5 25.5 5H27v1.171a26.783 26.783 0 0 0-3.978.749l-.01.001-.011.005a26.849 26.849 0 0 0-6.436 2.67c-.021.01-.044.01-.065.022-.02.012-.031.031-.05.044a27.141 27.141 0 0 0-4.809 3.566L9.494 11.08l1.414-1.414-4.243-4.243-4.242 4.243 4.242 4.242 1.415-1.414 2.147 2.147a27.1 27.1 0 0 0-3.565 4.809c-.013.019-.033.03-.044.05-.012.021-.011.043-.022.064a26.799 26.799 0 0 0-2.67 6.437l-.005.011-.001.01a26.916 26.916 0 0 0-.001 13.956l.001.01c.001.005.005.009.006.014a26.815 26.815 0 0 0 2.669 6.434c.01.021.01.043.022.064.017.029.041.051.06.078a27.196 27.196 0 0 0 4.191 5.454c.016.019.022.042.04.06s.041.024.06.04a27.153 27.153 0 0 0 5.482 4.207c.019.013.03.032.05.044.03.017.063.025.094.039a26.832 26.832 0 0 0 6.407 2.653l.011.005.015.002a26.92 26.92 0 0 0 13.946 0c.005-.001.01 0 .015-.002l.011-.005a26.85 26.85 0 0 0 6.407-2.653c.031-.014.064-.021.094-.039.02-.012.031-.031.05-.044a27.18 27.18 0 0 0 5.482-4.207c.019-.016.042-.022.06-.04s.024-.042.04-.06a27.196 27.196 0 0 0 4.191-5.454c.019-.027.043-.048.06-.078.012-.021.011-.043.022-.064a26.815 26.815 0 0 0 2.669-6.434c.001-.005.005-.009.006-.014l.001-.01a26.959 26.959 0 0 0 0-13.956zM53.335 8.251l1.414 1.415-1.414 1.414-1.415-1.414 1.415-1.415zM5.251 9.666l1.414-1.415L8.08 9.666 6.665 11.08 5.251 9.666zm46.706 30.253l1.915.513a24.844 24.844 0 0 1-1.747 4.188l-1.707-.986a1 1 0 0 0-1 1.732l1.703.983a25.091 25.091 0 0 1-2.762 3.596l-1.389-1.389a.999.999 0 1 0-1.414 1.414l1.389 1.389a25.091 25.091 0 0 1-3.596 2.762l-.983-1.703A.998.998 0 0 0 41 52.052a.999.999 0 0 0-.366 1.366l.986 1.707a24.81 24.81 0 0 1-4.188 1.747l-.513-1.914a1 1 0 0 0-1.932.518l.511 1.908c-1.456.328-2.959.53-4.498.591V56a1 1 0 1 0-2 0v1.975a24.949 24.949 0 0 1-4.498-.591l.511-1.908a1 1 0 0 0-1.932-.518l-.513 1.914a24.844 24.844 0 0 1-4.188-1.747l.986-1.707a1 1 0 0 0-1.732-1l-.983 1.703a25.091 25.091 0 0 1-3.596-2.762l1.389-1.389a.999.999 0 1 0-1.414-1.414l-1.389 1.389a25.091 25.091 0 0 1-2.762-3.596l1.703-.983A.999.999 0 0 0 10.948 44a.998.998 0 0 0-1.366-.366l-1.707.986a24.81 24.81 0 0 1-1.747-4.188l1.915-.513a1 1 0 0 0-.518-1.932l-1.909.511A25.038 25.038 0 0 1 5.025 34H7a1 1 0 1 0 0-2H5.025c.061-1.539.263-3.042.591-4.498l1.909.512a1 1 0 0 0 .518-1.932l-1.915-.514a24.844 24.844 0 0 1 1.747-4.188l1.707.986A.998.998 0 0 0 10.947 22a1 1 0 0 0-.366-1.366l-1.703-.983a25.091 25.091 0 0 1 2.762-3.596l1.389 1.389a.997.997 0 0 0 1.414 0 .999.999 0 0 0 0-1.414l-1.389-1.389a25.164 25.164 0 0 1 3.596-2.762l.983 1.704a1.002 1.002 0 0 0 1.366.366.999.999 0 0 0 .366-1.366l-.986-1.708a24.81 24.81 0 0 1 4.188-1.747l.513 1.915a1 1 0 1 0 1.932-.518l-.511-1.909a24.81 24.81 0 0 1 3.6-.537c.31-.023.59-.04.861-.053L29 8.025V10a1 1 0 1 0 2 0V8.025l.038.001c.271.013.55.03.861.053 1.227.093 2.429.273 3.6.537l-.511 1.909a1 1 0 0 0 1.932.518l.513-1.915a24.844 24.844 0 0 1 4.188 1.747l-.986 1.708a1 1 0 0 0 1.732 1l.983-1.704a25.164 25.164 0 0 1 3.596 2.762l-1.389 1.389a.999.999 0 1 0 1.414 1.414l1.389-1.389a25.091 25.091 0 0 1 2.762 3.596l-1.703.983a.998.998 0 0 0 .501 1.866c.17 0 .342-.043.499-.134l1.707-.986a24.81 24.81 0 0 1 1.747 4.188l-1.915.514a1 1 0 1 0 .518 1.932l1.909-.512c.328 1.456.53 2.959.591 4.498H53a1 1 0 1 0 0 2h1.975a24.971 24.971 0 0 1-.591 4.499l-1.909-.511a1 1 0 0 0-.518 1.931zM29 6.022V3h-3.5c-.275 0-.5-.225-.5-.5s.225-.5.5-.5h9c.275 0 .5.225.5.5s-.225.5-.5.5H31v3.022a23.218 23.218 0 0 0-2 0z"/></symbol><symbol viewBox="0 0 512 512" id="wallet"><path d="M487.59 299.894h-7.662v-69.015c0-10.926-5.438-20.6-13.743-26.478v-9.397c0-13.631-11.089-24.72-24.72-24.72h-5.721l21.889-32.12c7.337-10.766 4.547-25.495-6.219-32.833L302.883 4.111C297.668.556 291.382-.756 285.178.421a23.474 23.474 0 0 0-15.128 9.91L141.849 198.454h-35.675l8.607-87.13c.097-.982.735-1.833 1.625-2.168 11.089-4.181 20.699-11.989 27.059-21.985.501-.787 1.446-1.237 2.424-1.138l55.955 5.528a7.295 7.295 0 1 0 1.434-14.52l-55.955-5.528c-6.495-.636-12.689 2.357-16.169 7.825-4.676 7.35-11.742 13.09-19.895 16.164-6.137 2.314-10.351 7.826-10.999 14.387l-8.748 88.564h-9.303L95.821 60.649c.49-4.96 4.917-8.604 9.883-8.107l113.074 11.17a7.295 7.295 0 1 0 1.434-14.52l-113.074-11.17C94.174 36.743 82.581 46.248 81.3 59.214l-10.972 111.07H51.643c-13.63 0-24.72 11.089-24.72 24.72v6.41c-11.151 5.134-18.915 16.406-18.915 29.465v248.695c0 17.88 14.546 32.426 32.427 32.426h407.067c17.88 0 32.426-14.546 32.426-32.426V410.56h7.662c9.044 0 16.401-7.357 16.401-16.4v-77.865c.001-9.044-7.357-16.401-16.401-16.401zm-46.125-115.018c5.586-.001 10.129 4.543 10.129 10.129v3.717a32.512 32.512 0 0 0-4.092-.267h-30.955l9.253-13.579h15.665zM282.107 18.547a8.984 8.984 0 0 1 5.787-3.791 8.98 8.98 0 0 1 6.772 1.411l148.531 101.22c4.118 2.807 5.186 8.441 2.38 12.559l-46.686 68.506h-11.204l22.889-33.587c3.712-5.447 4.018-12.379.796-18.092-4.282-7.59-6.018-16.527-4.888-25.166.84-6.427-1.988-12.701-7.38-16.375L322.106 52.76c-5.393-3.675-12.267-4.012-17.941-.879-7.625 4.21-16.578 5.863-25.208 4.655-6.4-.898-12.891 1.992-16.548 7.357l-91.699 134.56h-11.204L282.107 18.547zm3.213 123.891c-31.771 0-57.851 24.773-59.976 56.015h-36.979L274.464 72.11h.001a2.605 2.605 0 0 1 2.133-1.147c.111 0 .222.008.333.023 11.738 1.642 23.913-.604 34.285-6.331.816-.452 1.864-.387 2.672.163l76.999 52.473c.806.55 1.249 1.502 1.129 2.426-1.537 11.749.825 23.903 6.648 34.225.467.829.41 1.891-.144 2.706l-28.488 41.804h-24.733c-2.127-31.241-28.206-56.014-59.979-56.014zm45.348 56.016h-90.695c2.09-23.189 21.624-41.424 45.347-41.424 23.724-.001 43.259 18.235 45.348 41.424zm-289.154-3.45c0-5.586 4.543-10.13 10.129-10.13h17.244l-1.341 13.579H41.514v-3.449zm-18.915 35.875c0-9.834 8.001-17.835 17.836-17.835h407.067c9.835 0 17.835 8.001 17.835 17.835v20.244H22.599v-20.244zm442.738 248.695c0 9.834-8 17.835-17.835 17.835H40.435c-9.835 0-17.836-8.001-17.836-17.835V459.33h39.342a7.295 7.295 0 1 0 0-14.59H22.599V265.714h442.738v34.18H395.97c-21.856 0-40.788 12.74-49.773 31.181-.03.062-.064.122-.095.184-.076.157-.142.32-.216.478-1.07 2.273-2 4.626-2.757 7.054l-.006.02a55.151 55.151 0 0 0-2.486 16.416c0 30.511 24.822 55.333 55.332 55.333h69.367v34.18H108.655a7.295 7.295 0 1 0 0 14.59h356.682v20.244zm24.064-85.415c0 .998-.812 1.81-1.811 1.81h-91.618c-15.445 0-28.911-8.639-35.818-21.338a40.21 40.21 0 0 1-2.448-5.41 40.546 40.546 0 0 1-2.476-13.994 40.57 40.57 0 0 1 4.023-17.648c.287-.593.587-1.179.901-1.756 6.907-12.699 20.373-21.338 35.818-21.338h91.618c.998 0 1.811.812 1.811 1.81v77.864z"/><path d="M397.681 325.627c-16.322 0-29.6 13.279-29.6 29.6s13.278 29.599 29.6 29.599c16.322 0 29.6-13.278 29.6-29.599 0-16.321-13.278-29.6-29.6-29.6zm0 44.608c-8.276 0-15.009-6.733-15.009-15.008 0-8.275 6.733-15.009 15.009-15.009s15.009 6.733 15.009 15.009-6.733 15.008-15.009 15.008z"/></symbol><symbol viewBox="0 0 475.084 475.084" id="zoomin"><path d="M464.524 412.846l-97.929-97.925c23.6-34.068 35.406-72.04 35.406-113.917 0-27.218-5.284-53.249-15.852-78.087-10.561-24.842-24.838-46.254-42.825-64.241-17.987-17.987-39.396-32.264-64.233-42.826C254.246 5.285 228.217.003 200.999.003c-27.216 0-53.247 5.282-78.085 15.847C98.072 26.412 76.66 40.689 58.673 58.676c-17.989 17.987-32.264 39.403-42.827 64.241C5.282 147.758 0 173.786 0 201.004c0 27.216 5.282 53.238 15.846 78.083 10.562 24.838 24.838 46.247 42.827 64.241 17.987 17.986 39.403 32.257 64.241 42.825 24.841 10.563 50.869 15.844 78.085 15.844 41.879 0 79.852-11.807 113.922-35.405l97.929 97.641c6.852 7.231 15.406 10.849 25.693 10.849 10.089 0 18.699-3.566 25.838-10.705 7.139-7.138 10.704-15.748 10.704-25.837s-3.518-18.651-10.561-25.694zM291.363 291.358c-25.029 25.033-55.148 37.549-90.364 37.549-35.21 0-65.329-12.519-90.36-37.549-25.031-25.029-37.546-55.144-37.546-90.36 0-35.21 12.518-65.334 37.546-90.36 25.026-25.032 55.15-37.546 90.36-37.546 35.212 0 65.331 12.519 90.364 37.546 25.033 25.026 37.548 55.15 37.548 90.36 0 35.216-12.519 65.331-37.548 90.36z"/><path d="M283.232 182.728h-63.954v-63.953c0-2.475-.905-4.615-2.712-6.424-1.809-1.809-3.951-2.712-6.423-2.712H191.87c-2.474 0-4.615.903-6.423 2.712-1.807 1.809-2.712 3.949-2.712 6.424v63.953h-63.954c-2.474 0-4.615.905-6.423 2.712-1.809 1.809-2.712 3.949-2.712 6.424v18.271c0 2.475.903 4.617 2.712 6.424 1.809 1.809 3.946 2.713 6.423 2.713h63.954v63.954c0 2.478.905 4.616 2.712 6.427 1.809 1.804 3.949 2.707 6.423 2.707h18.272c2.473 0 4.615-.903 6.423-2.707 1.807-1.811 2.712-3.949 2.712-6.427v-63.954h63.954c2.478 0 4.612-.905 6.427-2.713 1.804-1.807 2.703-3.949 2.703-6.424v-18.271c0-2.475-.899-4.615-2.703-6.424-1.807-1.807-3.949-2.712-6.426-2.712z"/></symbol></defs></svg>