<?xml version="1.0" encoding="iso-8859-1"?>
<!-- Generator: Adobe Illustrator 19.0.0, SVG Export Plug-In . SVG Version: 6.00 Build 0)  -->
<svg version="1.1" id="Capa_1" xmlns="http://www.w3.org/2000/svg" xmlns:xlink="http://www.w3.org/1999/xlink" x="0px" y="0px"
	 viewBox="0 0 512.001 512.001" style="enable-background:new 0 0 512.001 512.001;" xml:space="preserve">
<g>
	<g>
		<g>
			<path d="M410.144,254.514c2.999,0,5.831-1.813,6.987-4.775c1.506-3.857-0.401-8.206-4.259-9.713
				c-8.306-3.245-16.991-7.847-18.643-9.873c-2.283-3.416-6.899-4.363-10.344-2.106c-3.466,2.268-4.436,6.917-2.166,10.383
				c4.402,6.724,19.44,13.129,25.701,15.57C408.316,254.349,409.238,254.514,410.144,254.514z"/>
			<path d="M370.617,320.974c14.238,0,25.821-11.583,25.821-25.821s-11.583-25.821-25.821-25.821
				c-14.238,0-25.821,11.583-25.821,25.821C344.796,309.391,356.379,320.974,370.617,320.974z M370.617,284.331
				c5.967,0,10.821,4.855,10.821,10.821c0,5.966-4.854,10.821-10.821,10.821s-10.821-4.854-10.821-10.821
				S364.65,284.331,370.617,284.331z"/>
			<path d="M341.397,147.227c2.939,0,5.729-1.739,6.929-4.623c1.59-3.825-0.223-8.215-4.047-9.805
				c-5.327-2.214-13.137-13.471-13.737-16.902c-0.403-4.097-4.03-7.11-8.148-6.732c-4.124,0.377-7.162,4.027-6.785,8.152
				c0.788,8.612,12.481,24.997,22.912,29.334C339.462,147.042,340.437,147.227,341.397,147.227z"/>
			<path d="M284.116,422.299l18.619,8.18c9.929,4.362,20.358,6.513,30.707,6.513c15.584,0,30.989-4.875,44.239-14.417
				c22.05-15.88,33.733-41.515,31.253-68.574l-1.061-11.565c-0.776-8.468,1.793-16.729,7.234-23.264l35.909-43.124
				c10.959-13.161,13.869-30.577,7.786-46.587c-6.083-16.009-19.824-27.097-36.756-29.659l-2.985-0.453
				c-9.493-1.437-17.745-7.006-22.639-15.28c-2.107-3.565-6.709-4.747-10.272-2.638c-3.565,2.108-4.747,6.708-2.638,10.272
				c7.197,12.17,19.336,20.362,33.303,22.477l2.986,0.452c11.507,1.742,20.846,9.277,24.979,20.157
				c4.134,10.881,2.156,22.717-5.292,31.661l-35.909,43.123c-8.006,9.615-11.786,21.771-10.645,34.232l1.061,11.565
				c1.99,21.716-7.386,42.289-25.082,55.033c-17.696,12.743-40.181,15.113-60.147,6.344l-18.619-8.18
				c-19.489-8.563-41.019-12.302-62.252-10.811l-46.315,3.252c-24.393,1.717-47.354-8.098-62.977-26.915
				c-15.625-18.817-21.049-43.185-14.881-66.853l11.056-42.424c4.333-16.632-0.771-34.256-13.321-45.995l-9.477-8.866
				c-8.846-8.275-12.172-20.177-8.896-31.839c3.275-11.662,12.313-20.092,24.174-22.551l60.462-12.531
				c13.903-2.883,25.607-11.774,32.111-24.393L213.65,91.83c4.874-9.458,13.725-15.649,24.28-16.987
				c10.557-1.334,20.672,2.451,27.751,10.394c14.39,16.144,37.782,20.341,56.887,10.208l10.092-5.353
				c10.242-5.434,22.199-4.963,31.983,1.26c9.784,6.223,15.28,16.852,14.703,28.432l-1.681,33.698
				c-0.207,4.138,2.979,7.658,7.116,7.864c4.158,0.212,7.658-2.979,7.864-7.116l1.681-33.699c0.851-17.04-7.237-32.68-21.634-41.836
				c-14.398-9.156-31.989-9.849-47.063-1.854l-10.092,5.353c-12.981,6.889-28.88,4.034-38.66-6.937
				c-10.265-11.516-25.531-17.233-40.834-15.294c-15.304,1.94-28.66,11.283-35.729,24.995L186.5,111.768
				c-4.42,8.577-12.374,14.619-21.823,16.578l-60.462,12.531c-17.192,3.564-30.822,16.278-35.57,33.183
				c-4.748,16.903,0.268,34.855,13.09,46.849l9.477,8.866c8.529,7.977,11.998,19.955,9.053,31.258l-11.056,42.424
				c-7.401,28.4-0.893,57.639,17.855,80.218c18.748,22.58,46.3,34.358,75.569,32.296l46.315-3.252
				C247.759,411.397,266.843,414.711,284.116,422.299z"/>
			<path d="M323.077,198.884c-4.143,0-7.5,3.357-7.5,7.5v10.745c0,4.143,3.357,7.5,7.5,7.5c4.143,0,7.5-3.357,7.5-7.5v-10.745
				C330.578,202.241,327.221,198.884,323.077,198.884z"/>
			<path d="M297.256,375.755c0,14.238,11.583,25.821,25.821,25.821s25.822-11.583,25.822-25.821
				c0-14.238-11.584-25.821-25.822-25.821C308.839,349.934,297.256,361.517,297.256,375.755z M323.077,364.934
				c5.968,0,10.822,4.855,10.822,10.821c0,5.966-4.855,10.821-10.822,10.821s-10.821-4.854-10.821-10.821
				C312.256,369.788,317.11,364.934,323.077,364.934z"/>
			<path d="M484.798,401.772c-7.618-3.031-11.099-8.205-16.366-16.039c-5.289-7.864-12.365-18.346-24.885-25.943
				c-0.04-2.956-0.195-5.93-0.468-8.915l-0.966-10.552l35.253-42.336c18.984-22.8,24.027-52.97,13.49-80.705
				c-10.538-27.733-34.342-46.942-63.675-51.384l-0.778-0.117l0.485-9.721c16.94-5.436,46.501-15.805,62.521-51.173
				c2.48-5.477,2.68-11.591,0.562-17.218c-2.119-5.626-6.302-10.091-11.78-12.572c-11.303-5.113-24.666-0.085-29.786,11.218
				c-4.897,10.813-11.774,16.899-20.423,21.2c-2.177-16.885-9.563-32.542-21.527-45.118c-6.329-6.652-13.715-12.111-21.747-16.255
				c1.516-0.894,3.08-1.597,4.691-2.082c11.884-3.578,18.641-16.158,15.063-28.042C400.884,4.141,388.307-2.616,376.42,0.955
				c-15.873,4.78-29.108,14.977-39.339,30.309c-1.514,2.27-2.96,4.673-4.331,7.164c-8.038,1.516-15.879,4.251-23.181,8.123
				l-8.401,4.457c-15.304-16.362-36.755-25.707-59.164-25.707c-30.537,0-58.187,16.841-72.157,43.949l-0.953,1.849
				c-4.45-3.939-9.681-7.978-15.814-12.201c-16.043-11.049-34.811-20.737-45.643-23.563C95.424,32.209,83.11,39.432,79.98,51.434
				c-3.133,12.007,4.089,24.325,16.101,27.46c3.1,0.808,14.938,6.174,28.255,14.919c3.399,2.232,6.253,4.26,8.663,6.082
				l-35.741,7.408c-29.781,6.173-53.393,28.198-61.619,57.48c-7.359,26.196-1.171,53.841,16.117,74.258
				c-11.762,5.518-23.147,14.595-33.428,26.744c-8.014,9.475-6.827,23.704,2.646,31.722c4.059,3.433,9.219,5.323,14.529,5.323
				c6.639,0,12.904-2.904,17.191-7.969c1.503-1.777,3.054-3.449,4.627-5.006l-1.291,4.952c-9.783,37.537-1.798,76.66,21.907,107.337
				c2.831,3.664,5.836,7.135,8.99,10.419c-11.794,6.251-24.433,16.367-30.292,34.313c-3.851,11.798,2.615,24.529,14.411,28.381
				c2.267,0.74,4.618,1.115,6.988,1.115c9.764,0,18.361-6.239,21.394-15.526c2.071-6.348,9.671-9.853,25.922-15.31
				c2.294-0.771,5.009-1.682,7.753-2.678c9.403,3.461,19.291,5.795,29.515,6.9c4.118,0.442,7.817-2.533,8.263-6.651
				c0.444-4.118-2.533-7.817-6.651-8.263c-9.689-1.046-19.036-3.352-27.875-6.804c-0.3-0.141-0.609-0.262-0.925-0.362
				c-10.977-4.405-21.151-10.598-30.192-18.397c-0.149-0.139-0.3-0.273-0.458-0.398c-5.429-4.735-10.445-10.05-14.973-15.909
				c-20.845-26.973-27.865-61.373-19.262-94.381l11.056-42.424c1.159-4.449-0.206-9.166-3.566-12.312l-9.475-8.86
				c-18.105-16.939-25.188-42.288-18.482-66.154c6.705-23.866,25.949-41.818,50.223-46.85l60.462-12.532
				c3.725-0.771,6.858-3.153,8.595-6.529l13.819-26.808c11.388-22.096,33.928-35.821,58.824-35.821
				c18.784,0,36.745,8.063,49.277,22.123c2.376,2.666,5.791,4.194,9.369,4.194c2.059,0,4.03-0.493,5.855-1.463l10.092-5.353
				c6.881-3.649,14.341-6.056,21.948-7.127c0.029-0.003,0.057-0.008,0.085-0.012c2.959-0.413,5.939-0.63,8.917-0.63
				c7.147,0,14.209,1.206,20.918,3.461c0.053,0.019,0.106,0.037,0.16,0.055c10.137,3.436,19.452,9.291,26.964,17.186
				c12.522,13.162,18.917,30.478,18.007,48.756l-2.284,45.775c-0.321,6.452,4.253,12.045,10.64,13.011l2.986,0.452
				c23.908,3.62,43.31,19.276,51.898,41.881c8.588,22.605,4.478,47.194-10.996,65.778l-35.912,43.126
				c-2.109,2.537-3.147,5.875-2.845,9.154l1.06,11.573c2.477,27.01-6.159,52.842-24.314,72.738
				c-18.15,19.891-43.834,31.298-70.467,31.298c-3.341,0-6.666-0.178-9.969-0.53c-0.004,0-0.008-0.001-0.012-0.001
				c-9.71-1.034-19.226-3.581-28.399-7.612l-18.621-8.183c-12.443-5.465-25.642-8.236-39.227-8.236c-2.261,0-4.559,0.081-6.831,0.24
				l-32.157,2.258c-4.132,0.29-7.246,3.875-6.956,8.007c0.29,4.133,3.87,7.25,8.007,6.956l32.156-2.258
				c13.493-0.944,26.694,1.373,38.974,6.767l8.605,3.781c6.354,21.403,20.403,41.214,36.501,51.167
				c3.561,2.201,7.648,3.364,11.819,3.364c7.865,0,15.027-3.99,19.158-10.673c3.162-5.114,4.143-11.152,2.763-17.004
				c-1.284-5.441-4.484-10.094-9.035-13.264c28.383-1.779,55.328-14.658,74.771-35.965c6.632-7.269,12.165-15.221,16.547-23.681
				c6.94,10.313,16.509,24.152,36.706,32.188c2.665,1.06,5.463,1.597,8.314,1.597c9.277,0,17.488-5.57,20.918-14.19
				C501.978,419.476,496.33,406.361,484.798,401.772z M428.502,123.694c12.42-4.974,25.365-13.085,33.566-31.19
				c1.707-3.771,6.165-5.447,9.935-3.742c1.827,0.827,3.223,2.316,3.93,4.193c0.707,1.877,0.64,3.916-0.188,5.742
				c-11.948,26.38-32.186,35.834-48.056,41.299L428.502,123.694z M98.814,423.45c4.713,3.785,9.674,7.203,14.854,10.234
				c-12.672,4.512-24.468,10.155-28.5,22.508c-1.012,3.1-3.879,5.182-7.134,5.182c-0.786,0-1.571-0.126-2.332-0.375
				c-3.935-1.284-6.092-5.531-4.808-9.467C75.905,436.183,87.841,428.373,98.814,423.45z M66.715,253.808l-3.405,13.066
				c-9.89,5-17.925,13.403-22.069,18.302c-1.43,1.688-3.522,2.657-5.74,2.657c-1.251,0-3.106-0.309-4.841-1.774
				c-3.16-2.675-3.556-7.422-0.883-10.582c10.437-12.334,21.92-20.874,33.438-24.941L66.715,253.808z M156.563,95.011l-4.927,1.021
				c-3.797-3.678-9.783-8.659-19.071-14.758c-13.731-9.017-27.1-15.435-32.703-16.895c-4.006-1.046-6.415-5.154-5.371-9.159
				c1.045-4.004,5.164-6.409,9.159-5.37c9.03,2.355,26.621,11.557,40.917,21.401c6.945,4.783,12.695,9.366,17.191,13.68
				L156.563,95.011z M368.604,39.87c-5.641-1.531-11.452-2.462-17.333-2.738c7.968-10.984,17.87-18.319,29.468-21.812
				c3.964-1.189,8.164,1.059,9.357,5.022c1.193,3.964-1.061,8.16-5.023,9.354C379.008,31.522,373.487,34.938,368.604,39.87z
				 M333.648,493.44c-1.378,2.229-3.771,3.56-6.399,3.56c-1.384,0-2.744-0.389-3.933-1.123c-9.911-6.128-19.159-17.491-25.32-30.488
				c6.605,2.253,13.344,3.864,20.177,4.824c3.169,4.444,7.601,9.531,13.039,12.893c1.705,1.054,2.898,2.709,3.358,4.66
				C335.03,489.719,334.703,491.733,333.648,493.44z M483.453,425.461c-1.145,2.877-3.885,4.735-6.98,4.735
				c-0.945,0-1.878-0.181-2.771-0.535c-16.247-6.464-23.647-17.469-30.177-27.178c-1.804-2.683-3.509-5.148-5.255-7.411
				c1.854-5.726,3.231-11.612,4.112-17.617c5.849,5.134,9.896,11.139,13.602,16.649c5.831,8.67,11.338,16.859,23.268,21.605
				C483.099,417.24,484.983,421.615,483.453,425.461z"/>
			<path d="M156.693,369.578c3.43,1.355,6.547,1.912,9.394,1.912c7.949,0,13.785-4.34,18.372-7.752c4.41-3.279,7.32-5.3,11.117-5.3
				c0.063,0,0.125,0,0.188,0.001c4.107,0,7.456-3.308,7.498-7.424c0.042-4.142-3.282-7.533-7.424-7.576
				c-0.09-0.001-0.179-0.001-0.268-0.001c-8.952,0-15.107,4.578-20.063,8.264c-5.733,4.267-8.259,5.917-13.3,3.927
				c-3.851-1.523-8.208,0.365-9.732,4.218C150.953,363.698,152.841,368.056,156.693,369.578z"/>
			<path d="M203.263,206.384c0-4.143-3.357-7.5-7.5-7.5c-4.143,0-7.5,3.357-7.5,7.5v10.745c0,4.143,3.357,7.5,7.5,7.5
				c4.143,0,7.5-3.357,7.5-7.5V206.384z"/>
			<path d="M153.328,186.42c4.117,0.114,7.587-3.156,7.697-7.297c0.11-4.142-3.156-7.587-7.297-7.697
				c-8.863-0.256-14.74,2.614-19.955,5.131c-5.307,2.56-9.889,4.77-18.359,4.058c-4.121-0.343-7.756,2.717-8.103,6.845
				c-0.347,4.128,2.718,7.756,6.845,8.103c1.52,0.128,2.965,0.187,4.343,0.187c10.01,0,16.472-3.116,21.79-5.681
				C144.845,187.869,148.133,186.287,153.328,186.42z"/>
			<path d="M271.884,128.385c0-12.754-10.376-23.13-23.13-23.13c-12.754,0-23.13,10.376-23.13,23.13
				c0,12.755,10.376,23.131,23.13,23.131C261.508,151.516,271.884,141.14,271.884,128.385z M240.624,128.385
				c0-4.482,3.647-8.13,8.13-8.13c4.482,0,8.13,3.647,8.13,8.13c0,4.483-3.648,8.131-8.13,8.131
				C244.271,136.516,240.624,132.868,240.624,128.385z"/>
			<path d="M259.42,255.434c15.265,0,27.683-13.496,27.683-30.084c0-16.588-12.418-30.084-27.683-30.084
				c-15.264,0-27.682,13.496-27.682,30.084C231.738,241.938,244.156,255.434,259.42,255.434z M259.42,210.266
				c6.993,0,12.683,6.767,12.683,15.084c0,8.317-5.689,15.084-12.683,15.084c-6.993,0-12.682-6.767-12.682-15.084
				C246.738,217.032,252.427,210.266,259.42,210.266z"/>
			<path d="M145.501,342.707c12.754,0,23.13-10.376,23.13-23.13c0-12.755-10.376-23.131-23.13-23.131
				c-12.754,0-23.13,10.376-23.13,23.131C122.371,332.331,132.747,342.707,145.501,342.707z M145.501,311.446
				c4.482,0,8.13,3.647,8.13,8.131c0,4.482-3.647,8.13-8.13,8.13c-4.482,0-8.13-3.647-8.13-8.13S141.018,311.446,145.501,311.446z"
				/>
			<path d="M260.637,327.855c1.189,0.695,2.492,1.025,3.777,1.025c2.578,0,5.088-1.33,6.483-3.717
				c0.899-1.54,1.688-3.009,2.452-4.429c4.173-7.768,5.721-10.67,15.289-10.196c4.144,0.218,7.658-2.98,7.864-7.116
				c0.207-4.137-2.978-7.658-7.116-7.864c-19.007-0.972-24.697,9.599-29.251,18.078c-0.701,1.303-1.425,2.651-2.189,3.959
				C255.855,321.171,257.06,325.764,260.637,327.855z"/>
		</g>
	</g>
</g>
<g>
</g>
<g>
</g>
<g>
</g>
<g>
</g>
<g>
</g>
<g>
</g>
<g>
</g>
<g>
</g>
<g>
</g>
<g>
</g>
<g>
</g>
<g>
</g>
<g>
</g>
<g>
</g>
<g>
</g>
</svg>
